PathFileType	4	(X/Y/Z)	/Users/itak/Documents/Research/Walk-IL/dataset/trc/00234_00009.trc
DataRate	CameraRate	NumFrames	NumMarkers	Units	OrigDataRate	OrigDataStartFrame	OrigNumFrames
100.000000	100.000000	4	53	mm	100.000000	585	780
Frame#	Time	RPSI			LPSI			L3			STRN			T10			C7			CLAV			RBAK			LBAK			LSHO			LUPA			LAEL			LAOL			LWTS			LWPS			LFRA			LIFD			LHPS			LHTS			RSHO			RUPA			RAEL			RAOL			RWTS			RWPS			RFRA			RIFD			RHTS			RHPS			RBHD			LFHD			RFHD			LBHD			LHIP			RHIP			RASI			LASI			LKNE			LTHI			LANK			LTIP			LTOE			LMT1			LMT5			LHEE			RKNE			RTHI			RANK			RTIP			RTOE			RMT1			RMT5			RHEE			
		X1	Y1	Z1	X2	Y2	Z2	X3	Y3	Z3	X4	Y4	Z4	X5	Y5	Z5	X6	Y6	Z6	X7	Y7	Z7	X8	Y8	Z8	X9	Y9	Z9	X10	Y10	Z10	X11	Y11	Z11	X12	Y12	Z12	X13	Y13	Z13	X14	Y14	Z14	X15	Y15	Z15	X16	Y16	Z16	X17	Y17	Z17	X18	Y18	Z18	X19	Y19	Z19	X20	Y20	Z20	X21	Y21	Z21	X22	Y22	Z22	X23	Y23	Z23	X24	Y24	Z24	X25	Y25	Z25	X26	Y26	Z26	X27	Y27	Z27	X28	Y28	Z28	X29	Y29	Z29	X30	Y30	Z30	X31	Y31	Z31	X32	Y32	Z32	X33	Y33	Z33	X34	Y34	Z34	X35	Y35	Z35	X36	Y36	Z36	X37	Y37	Z37	X38	Y38	Z38	X39	Y39	Z39	X40	Y40	Z40	X41	Y41	Z41	X42	Y42	Z42	X43	Y43	Z43	X44	Y44	Z44	X45	Y45	Z45	X46	Y46	Z46	X47	Y47	Z47	X48	Y48	Z48	X49	Y49	Z49	X50	Y50	Z50	X51	Y51	Z51	X52	Y52	Z52	X53	Y53	Z53	

586	5.850000000000001	-567.9737548828125	1023.955444335938	-186.0348663330078	-447.5615539550781	1023.8671875	-202.2838592529297	-489.1220092773438	1101.30517578125	-204.36572265625	-458.4782409667969	1290.345092773438	38.08803939819336	-495.7470397949219	1229.830200195312	-210.1521148681641	-486.4260864257812	1492.5068359375	-151.4551849365234	-466.4227600097656	1407.019409179688	10.90798568725586	-564.134033203125	1350.529174804688	-218.7057800292969	-379.1723937988281	1455.367797851562	-185.5304870605469	-311.8219299316406	1456.209838867188	-104.7363815307617	-237.4734649658203	1338.759887695312	-148.8217010498047	-211.6319427490234	1128.739379882812	-143.0718994140625	-266.6045837402344	1113.30810546875	-210.0265045166016	-266.3511352539062	899.8839111328125	-38.96772384643555	-188.1137237548828	883.698486328125	-65.72930908203125	-197.505615234375	1022.43603515625	-118.0600357055664	-254.3712615966797	705.3192749023438	-36.28814315795898	-190.1492462158203	795.9884643554688	-47.39313888549805	-243.1654052734375	799.0217895507812	-4.964943885803223	-646.571044921875	1447.177001953125	-76.20854949951172	-715.1549682617188	1383.186889648438	-89.05910491943359	-768.6228637695312	1107.270141601562	-110.9671783447266	-682.1740112304688	1095.22119140625	-151.0352478027344	-733.3392333984375	888.0867309570312	19.4670467376709	-801.2307739257812	879.5918579101562	-30.68850708007812	-783.5811767578125	1039.699584960938	-84.83197784423828	-737.4864501953125	694.5598754882812	24.4720573425293	-755.3532104492188	765.9541015625	55.3653450012207	-806.7426147460938	771.3910522460938	5.004788875579834	-541.2510375976562	1659.073852539062	-68.87882995605469	-387.0840759277344	1667.88037109375	97.89560699462891	-481.9889831542969	1664.034423828125	128.5041656494141	-400.6353759765625	1662.14404296875	-66.38058471679688	-296.4156188964844	950.6642456054688	-126.9984588623047	-659.3886108398438	995.3192749023438	-65.43155670166016	-602.3208618164062	1034.3857421875	17.66825675964355	-324.1913757324219	998.9503173828125	-19.46334266662598	-375.675048828125	469.3188781738281	-127.2281341552734	-337.94384765625	611.23486328125	-116.8162078857422	-445.6089172363281	112.3955078125	-465.4812927246094	-398.7542419433594	301.4976501464844	-290.1928405761719	-591.5845947265625	37.84970474243164	-333.5642700195312	-590.7446899414062	66.99564361572266	-397.2759704589844	-490.1202392578125	37.35972595214844	-372.5404968261719	-469.2774047851562	174.5828247070312	-512.12451171875	-579.91162109375	533.8907470703125	108.6166763305664	-642.595458984375	787.07861328125	45.07565689086914	-597.4602661132812	30.69059753417969	101.1107406616211	-558.1886596679688	412.6744079589844	134.4106750488281	-447.8568725585938	48.33179473876953	256.9734497070312	-442.2941284179688	47.84545516967773	187.7550048828125	-562.2606811523438	31.85984039306641	208.0404052734375	-577.7315673828125	35.24460220336914	17.81501770019531	
587	5.86	-569.5081176757812	1025.089233398438	-176.5868225097656	-449.3727722167969	1024.695190429688	-194.9575500488281	-490.9342041015625	1102.315795898438	-196.1385192871094	-456.5054016113281	1291.624877929688	45.43223571777344	-497.3324584960938	1230.6806640625	-201.6524200439453	-487.5493469238281	1493.5087890625	-143.8875579833984	-465.0536804199219	1408.240112304688	18.26461219787598	-565.9160766601562	1351.244750976562	-209.8327484130859	-380.7592468261719	1456.611206054688	-179.3916625976562	-312.2008666992188	1457.739013671875	-99.59356689453125	-238.2758636474609	1340.472900390625	-144.9337615966797	-212.0347290039062	1130.491088867188	-140.8399505615234	-268.6980895996094	1115.338256835938	-206.4070281982422	-262.3575439453125	899.7706909179688	-38.2143669128418	-185.0490570068359	884.3900146484375	-67.90028381347656	-196.71337890625	1023.938110351562	-117.6408996582031	-249.4527740478516	705.1966552734375	-39.6044807434082	-186.0779113769531	796.3497314453125	-51.17974090576172	-237.6067199707031	798.3027954101562	-6.823281764984131	-646.5150756835938	1447.934204101562	-66.34080505371094	-715.1770629882812	1383.734130859375	-78.08808898925781	-768.0093994140625	1107.611083984375	-98.47000885009766	-682.1403198242188	1095.665771484375	-139.6305999755859	-730.91796875	888.509521484375	31.46345710754395	-799.6033325195312	880.08544921875	-17.6802864074707	-782.643798828125	1040.123779296875	-72.11473083496094	-735.2134399414062	695.02197265625	36.70528030395508	-752.7420654296875	766.432861328125	67.79869842529297	-804.6829223632812	771.9103393554688	18.13397789001465	-541.5075073242188	1659.97265625	-60.98418045043945	-385.7471008300781	1669.466918945312	104.2197952270508	-480.3325805664062	1665.287231445312	135.7924041748047	-400.8984375	1663.561645507812	-59.91666030883789	-297.1494140625	951.5927124023438	-121.9612884521484	-658.4134521484375	995.9737548828125	-55.71392440795898	-600.9341430664062	1035.572387695312	27.60483551025391	-323.3577880859375	1000.02490234375	-13.98440170288086	-371.2763061523438	469.1136474609375	-115.25732421875	-335.4082641601562	611.56982421875	-107.461181640625	-445.2909851074219	118.0085067749023	-459.0926818847656	-396.2792663574219	304.2804565429688	-280.3064880371094	-590.01806640625	37.48385238647461	-329.5483703613281	-590.0824584960938	70.76195526123047	-391.2420654296875	-490.2061157226562	37.48494338989258	-370.2644653320312	-468.8568115234375	182.3427886962891	-502.508544921875	-577.9820556640625	533.4107666015625	114.4969100952148	-641.1956176757812	787.177978515625	54.12853622436523	-597.0634765625	31.04320335388184	101.1723251342773	-556.290283203125	411.8920288085938	138.8258361816406	-446.9149169921875	47.11801147460938	256.9317626953125	-441.6662292480469	46.94964981079102	187.8122253417969	-562.0745239257812	32.1856803894043	207.9546966552734	-577.6262817382812	35.40384292602539	17.80119132995605	
588	5.87	-571.11083984375	1026.260375976562	-167.3107147216797	-451.3387451171875	1025.59326171875	-187.8716430664062	-492.9175720214844	1103.410522460938	-188.0783538818359	-454.4702453613281	1292.838134765625	52.62735748291016	-498.9853515625	1231.619384765625	-193.3006896972656	-488.5806274414062	1494.557861328125	-136.2997131347656	-463.597412109375	1409.403930664062	25.53450584411621	-567.6793823242188	1352.072387695312	-200.9810028076172	-382.3031921386719	1457.871704101562	-173.2843780517578	-312.5488586425781	1459.207397460938	-94.50889587402344	-239.0467224121094	1342.165649414062	-141.1220703125	-212.2382202148438	1132.275390625	-138.6247863769531	-270.4114074707031	1117.3427734375	-202.8735656738281	-258.4429626464844	899.8934936523438	-37.48725891113281	-182.1039428710938	885.2548217773438	-69.87995147705078	-195.8400573730469	1025.529663085938	-117.1352386474609	-244.9545440673828	705.39453125	-42.60440444946289	-182.3207550048828	796.927001953125	-54.67425155639648	-232.3423004150391	797.921630859375	-8.542078018188477	-646.3345336914062	1448.781372070312	-56.44401168823242	-715.052978515625	1384.395751953125	-67.08170318603516	-767.3245239257812	1108.071533203125	-86.03018188476562	-682.0772094726562	1096.228515625	-128.3038330078125	-728.35400390625	889.1468505859375	43.51664733886719	-797.7686767578125	880.714111328125	-4.603721141815186	-781.6099853515625	1040.661010742188	-59.43006896972656	-732.7318115234375	695.7018432617188	49.15103912353516	-749.89697265625	767.1613159179688	80.36091613769531	-802.4231567382812	772.6124267578125	31.42027473449707	-541.5914306640625	1660.873046875	-53.13244247436523	-384.2679138183594	1671.0693359375	110.5146942138672	-478.5310974121094	1666.5771484375	143.0290222167969	-401.0044555664062	1664.953857421875	-53.46657943725586	-297.9558715820312	952.6026000976562	-117.3842697143555	-657.338623046875	996.5675659179688	-46.13238525390625	-599.4913940429688	1036.691650390625	37.48127746582031	-322.4749755859375	1001.159912109375	-8.906278610229492	-366.6703491210938	469.0454406738281	-103.0275802612305	-332.7302856445312	612.022216796875	-98.06891632080078	-444.9264526367188	123.9216232299805	-452.1283874511719	-393.6719970703125	307.0771484375	-269.8359985351562	-587.7269897460938	37.0833854675293	-324.1428833007812	-589.189453125	75.04454803466797	-383.7881164550781	-489.9039306640625	38.12285614013672	-367.3341979980469	-468.3157348632812	190.1768951416016	-492.3964233398438	-575.9780883789062	532.8975830078125	120.0016403198242	-639.5765380859375	787.2333374023438	62.89856719970703	-596.6484375	31.38187599182129	101.2126541137695	-554.3569946289062	411.10302734375	142.8928833007812	-446.0788879394531	46.22989273071289	256.8601379394531	-441.0658874511719	46.24446105957031	187.8307342529297	-561.85107421875	32.48940277099609	207.8545227050781	-577.5079345703125	35.54999542236328	17.76258850097656	
589	5.88	-572.7261962890625	1027.449829101562	-158.2296295166016	-453.4151611328125	1026.539184570312	-181.0071868896484	-495.017333984375	1104.580444335938	-180.2131500244141	-452.3851013183594	1293.973999023438	59.66420364379883	-500.6996459960938	1232.646850585938	-185.1328430175781	-489.5401916503906	1495.644897460938	-128.6976776123047	-462.0536193847656	1410.504028320312	32.70927429199219	-569.4564208984375	1353.01318359375	-192.1475982666016	-383.818603515625	1459.140014648438	-167.2221984863281	-312.8821105957031	1460.603759765625	-89.49391174316406	-239.8069458007812	1343.822509765625	-137.3963775634766	-212.2628784179688	1134.075439453125	-136.4278259277344	-271.7670593261719	1119.305541992188	-199.4455108642578	-254.6251220703125	900.2322387695312	-36.78016662597656	-179.2667846679688	886.2623291015625	-71.63489532470703	-194.8827667236328	1027.186645507812	-116.5341873168945	-240.8733825683594	705.8607788085938	-45.23727035522461	-178.8523864746094	797.6809692382812	-57.82151031494141	-227.3906707763672	797.845458984375	-10.07763767242432	-646.0377197265625	1449.710815429688	-46.50399398803711	-714.7907104492188	1385.168579101562	-56.01940155029297	-766.5939331054688	1108.649658203125	-73.66298675537109	-682.0064086914062	1096.9072265625	-117.069465637207	-725.6570434570312	889.9976806640625	55.61126327514648	-795.7300415039062	881.4706420898438	8.523969650268555	-780.4962768554688	1041.306030273438	-46.7928352355957	-730.029052734375	696.5991821289062	61.79283142089844	-746.7819213867188	768.1343383789062	93.03123474121094	-799.9561157226562	773.4931640625	44.84070205688477	-541.5020751953125	1661.7685546875	-45.31614685058594	-382.6344909667969	1672.654052734375	116.776496887207	-476.5692443847656	1667.887329101562	150.2171173095703	-400.9552307128906	1666.295166015625	-47.03377532958984	-298.8272094726562	953.645263671875	-113.2272872924805	-656.1687622070312	997.138427734375	-36.67545700073242	-597.9804077148438	1037.755981445312	47.27452850341797	-321.5409240722656	1002.334350585938	-4.215137004852295	-361.8997497558594	469.1346130371094	-90.55861663818359	-329.9271545410156	612.5945434570312	-88.62230682373047	-444.5929870605469	130.1149597167969	-444.5853881835938	-390.9737548828125	309.8975524902344	-258.8345336914062	-584.4956665039062	36.7173957824707	-317.1607666015625	-587.9164428710938	79.65072631835938	-374.7292785644531	-489.0082397460938	39.42811584472656	-363.5252990722656	-467.8858642578125	197.9776000976562	-481.8696594238281	-573.9451904296875	532.3713989257812	125.2012786865234	-637.7639770507812	787.3002319335938	71.43100738525391	-596.2448120117188	31.68995666503906	101.23828125	-552.4317016601562	410.3255310058594	146.6680450439453	-445.3709106445312	45.60893630981445	256.7759399414062	-440.5200805664062	45.70207595825195	187.8227844238281	-561.6212768554688	32.75809860229492	207.7559356689453	-577.3934326171875	35.6839714050293	17.71415901184082	
